<svg width="6" height="6" viewBox="0 0 6 6" fill="none" xmlns="http://www.w3.org/2000/svg">
<path d="M5.17756 2.25926C5.2458 2.76984 5.16139 3.28923 4.935 3.75177C4.70862 4.2143 4.35043 4.59921 3.90571 4.85783C3.46098 5.11645 2.94971 5.23716 2.43651 5.20471C1.92331 5.17227 1.43124 4.98812 1.0225 4.67555C0.613759 4.36297 0.306705 3.93601 0.14016 3.44864C-0.0263858 2.96126 -0.0449456 2.43536 0.0868253 1.93742C0.218596 1.43948 0.494778 0.991854 0.880461 0.651141C1.26615 0.310428 1.74401 0.0919264 2.25364 0.0232539C2.5922 -0.0223668 2.93641 -0.000724632 3.26661 0.0869706C3.59682 0.174666 3.90653 0.326685 4.17806 0.534335C4.4496 0.741985 4.67763 1.00121 4.84913 1.29718C5.02063 1.59315 5.13223 1.92007 5.17756 2.25926V2.25926Z" fill="#263238"/>
</svg>
